# xmcd
#
# Track frame offsets: 
#        182
#        12077
#        24912
#        37472
#        50197
#        62350
#        76422
#        88397
#        101660
#        113205
#        127222
#        141260
#        155115
#        165630
#        176140
#        189640
#
# Disc length: 2678 seconds
#
# Revision: 3
# Processed by: cddbd v1.5.2PL0 Copyright (c) Steve Scherf et al.
# Submitted via: ExactAudioCopyFreeDBPlugin 1.0
#
DISCID=e90a7410
DTITLE=Otis Rush - I Can't Quit You Baby
DYEAR=1900
DGENRE=Blues
TTITLE0=All Your Love
TTITLE1=Three Times a Fool
TTITLE2=She's Good 'un
TTITLE3=It Takes Time
TTITLE4=Double Trouble
TTITLE5=My love Will Never Die
TTITLE6=My Baby Is a Good 'un
TTITLE7=Checking on My Baby
TTITLE8=Jump Sister Bessie
TTITLE9=I Can't Quit You Baby
TTITLE10=If You Were Mine
TTITLE11=Groaning the Blues
TTITLE12=Keep on Loving Me Baby
TTITLE13=Sit Down Baby
TTITLE14=Love That Woman
TTITLE15=Violent Love
EXTD=
EXTT0=
EXTT1=
EXTT2=
EXTT3=
EXTT4=
EXTT5=
EXTT6=
EXTT7=
EXTT8=
EXTT9=
EXTT10=
EXTT11=
EXTT12=
EXTT13=
EXTT14=
EXTT15=
PLAYORDER=
